<?xml version="1.0" encoding="utf-8"?><svg viewBox="0 0 101 101" xmlns="http://www.w3.org/2000/svg" xmlns:xlink="http://www.w3.org/1999/xlink"><style>:root>svg{display:none}:root>svg:target{display:block}</style><svg fill="none" viewBox="0 0 43 47" id="bolt" xmlns="http://www.w3.org/2000/svg"><path d="M40.18 11.573l-17.143-9.69a2.872 2.872 0 00-2.812 0l-17.143 9.69a2.861 2.861 0 00-1.45 2.487v19.32a2.861 2.861 0 001.45 2.487l17.143 9.689a2.87 2.87 0 002.812 0l17.143-9.69a2.862 2.862 0 001.451-2.487V14.06a2.861 2.861 0 00-1.451-2.487zm-.998 21.806a.409.409 0 01-.207.356l-17.143 9.69a.41.41 0 01-.402-.001l-17.143-9.69a.408.408 0 01-.207-.355V14.06a.41.41 0 01.207-.355l17.143-9.69a.41.41 0 01.402 0l17.143 9.69a.41.41 0 01.207.355v19.32zm-17.55-18.23a8.571 8.571 0 108.57 8.57 8.58 8.58 0 00-8.57-8.57zm0 14.693a6.122 6.122 0 116.121-6.122 6.13 6.13 0 01-6.122 6.122z" fill="#F10E44" stroke="#F10E44" stroke-width="2"/></svg><svg fill="none" viewBox="0 0 31 33" id="box" xmlns="http://www.w3.org/2000/svg"><path d="M15.39 32.225c-.482-.32-1.02-.53-1.537-.78-4.26-2.06-8.521-4.114-12.787-6.164-.346-.167-.49-.376-.489-.767.01-5.528.01-11.056 0-16.583 0-.359.12-.566.45-.726C5.752 4.935 10.471 2.657 15.184.37a.822.822 0 01.792 0c4.715 2.282 9.433 4.56 14.154 6.835.334.158.447.37.447.728-.008 5.528-.008 11.056 0 16.584 0 .393-.147.603-.49.768a5538.804 5538.804 0 00-14.074 6.785c-.084.042-.198.054-.25.156h-.373zM2.133 7.715c.142.07.234.116.326.16l7.208 3.483c.86.417 1.722.828 2.578 1.252.265.132.354.385.25.626-.102.24-.364.323-.636.216-.084-.033-.167-.079-.25-.12L1.817 8.61c-.084-.043-.167-.123-.282-.093 0 .036-.006.067-.006.098 0 5.206-.002 10.41-.007 15.614 0 .2.092.263.241.334l13.04 6.296c.302.145.303.144.303-.19v-6.81c0-2.842.002-5.684.006-8.527 0-.228-.056-.36-.278-.447-.308-.121-.603-.277-.9-.427-.297-.15-.401-.417-.274-.664.128-.246.38-.314.668-.18.321.147.644.292.952.463a.55.55 0 00.578.005c.957-.477 1.92-.935 2.885-1.402.206-.1.41-.167.616-.008.3.23.229.632-.157.821-.96.472-1.92.944-2.89 1.395-.215.101-.278.217-.277.444.006 5.113.008 10.225.005 15.337 0 .341 0 .342.301.197 4.35-2.098 8.7-4.194 13.049-6.288.21-.101.243-.228.243-.431-.005-5.113-.005-10.225 0-15.336v-.315a.647.647 0 00-.112.027c-1.347.648-2.692 1.302-4.043 1.943-.181.083-.167.212-.167.355 0 1.729-.006 3.457.005 5.185 0 .348-.122.56-.437.707-1.062.501-2.116 1.015-3.172 1.523-.55.264-.835.084-.835-.525 0-1.707-.007-3.415.007-5.122 0-.25-.083-.367-.297-.468A6411.614 6411.614 0 017.037 5.588c-.129-.063-.238-.131-.403-.05-1.483.727-2.97 1.438-4.501 2.176zm9.601-4.635c.103.128.23.157.338.21l12.866 6.215a.398.398 0 00.4 0c1.155-.562 2.316-1.119 3.475-1.679.06-.029.14-.037.16-.133l-13.228-6.39a.354.354 0 00-.349.007c-1.21.587-2.425 1.173-3.66 1.77h-.002zm12.307 7.039c-.128-.066-.207-.11-.289-.149l-2.998-1.45c-3.28-1.585-6.56-3.17-9.842-4.754-.126-.06-.243-.155-.407-.074-.854.418-1.71.835-2.597 1.266.133.065.234.116.334.167 4.131 1.996 8.266 3.981 12.389 6 .5.244.882.276 1.367-.006.644-.369 1.332-.655 2.046-1h-.003zm-2.221 7.013c.808-.388 1.562-.756 2.322-1.11.175-.084.232-.182.232-.377-.01-1.404-.006-2.808-.006-4.213v-.408l-2.442 1.169a.191.191 0 00-.105.204c.002 1.561.001 3.12.001 4.734l-.002.001z" fill="#fff"/><path d="M2.133 7.715c1.53-.738 3.018-1.451 4.5-2.177.168-.083.276-.012.404.05a5912.21 5912.21 0 018.666 4.183c1.627.785 3.255 1.568 4.883 2.349.213.1.3.218.298.468-.015 1.708-.009 3.415-.008 5.123 0 .61.285.789.835.525 1.057-.509 2.112-1.024 3.173-1.523.315-.148.439-.36.436-.707-.01-1.729-.005-3.457-.005-5.185 0-.144-.016-.27.167-.356 1.351-.64 2.696-1.294 4.043-1.943a.65.65 0 01.112-.027v15.651c0 .203-.032.33-.243.431-4.351 2.09-8.7 4.186-13.047 6.289-.3.144-.302.143-.302-.197 0-5.113-.002-10.225-.005-15.337 0-.227.062-.343.277-.444.97-.451 1.93-.924 2.89-1.396.386-.188.458-.59.157-.82-.206-.156-.41-.092-.615.007-.962.467-1.929.925-2.886 1.402a.552.552 0 01-.578-.004c-.308-.172-.63-.316-.951-.463-.293-.135-.547-.062-.668.18s-.021.514.274.664c.294.15.591.305.9.426.222.084.278.219.277.448-.008 2.842-.01 5.684-.005 8.526v6.81c0 .334 0 .334-.303.19l-13.05-6.294c-.15-.071-.242-.134-.242-.334.008-5.204.01-10.409.007-15.613 0-.031.004-.062.007-.098.114-.03.193.05.281.092l9.79 4.724c.084.041.168.084.251.12.272.107.537.015.637-.216.1-.232.017-.495-.25-.626-.857-.422-1.719-.835-2.579-1.252L2.453 7.878a9.21 9.21 0 00-.32-.163zm5.48 14.067a.47.47 0 00-.293-.44c-.317-.153-.633-.31-.95-.463L3.4 19.448c-.374-.18-.634-.118-.766.176-.121.272 0 .49.367.668l.448.217 3.416 1.65c.382.186.748-.003.748-.377zm-2.455 1.75c.251-.035.418-.134.476-.35.066-.257-.044-.45-.277-.564-.672-.328-1.346-.652-2.02-.972-.323-.153-.585-.075-.708.198-.115.258-.006.491.31.646.644.314 1.29.626 1.935.934.102.048.211.08.284.108z" fill="#F10E44"/><path d="M11.737 3.08c1.234-.596 2.45-1.182 3.662-1.773a.354.354 0 01.348-.007c4.408 2.132 8.818 4.262 13.228 6.39-.02.096-.1.104-.16.133-1.159.56-2.32 1.117-3.475 1.68a.399.399 0 01-.4 0 6358.905 6358.905 0 00-12.865-6.217c-.109-.049-.236-.077-.338-.206zM24.044 10.12c-.714.344-1.404.63-2.044 1.001-.485.282-.868.25-1.368.005-4.12-2.022-8.26-4.004-12.388-6-.102-.049-.203-.1-.334-.167.886-.431 1.743-.845 2.597-1.265.167-.084.28.013.407.073l9.84 4.753 3.001 1.448c.082.042.16.085.289.151zM21.822 17.13v-4.733a.191.191 0 01.104-.204l2.444-1.17v.41c0 1.406-.004 2.81.006 4.214 0 .195-.057.295-.232.377-.76.35-1.514.718-2.322 1.106z" fill="#F10E44"/><path d="M7.613 21.782c0 .374-.363.563-.751.38a793.63 793.63 0 01-3.417-1.65l-.447-.217c-.37-.182-.489-.4-.367-.668.132-.293.392-.355.766-.176.99.476 1.98.953 2.969 1.431.318.153.633.31.95.464a.47.47 0 01.297.436zM5.158 23.532c-.073-.028-.182-.06-.284-.108-.645-.307-1.29-.618-1.936-.934-.317-.155-.425-.389-.31-.646.122-.273.384-.351.707-.199.677.323 1.351.647 2.024.973.233.114.342.307.276.564-.057.216-.224.315-.477.35z" fill="#fff"/></svg><svg fill="none" viewBox="0 0 38 31" id="cart" xmlns="http://www.w3.org/2000/svg"><path fill-rule="evenodd" clip-rule="evenodd" d="M12.755 2.44A3.212 3.212 0 009.57.046l-8.3.199A1.234 1.234 0 00.063 1.506c.016.68.583 1.22 1.265 1.203l8.3-.2a.741.741 0 01.736.554l1.603 6.132c.017.066.04.13.066.19l2.345 11.577a1.977 1.977 0 002.112 1.574l18.874-2.01a1.974 1.974 0 001.803-1.965V8.39c0-1.09-.886-1.973-1.978-1.973H13.795l-1.04-3.977z" fill="#F10E44"/><circle r="3.088" transform="matrix(1 0 0 -1 33.372 25.631)" fill="#F10E44"/><circle r="3.088" transform="matrix(1 0 0 -1 20.577 26.956)" fill="#F10E44"/></svg><svg fill="none" viewBox="0 0 21 18" id="cart-e" xmlns="http://www.w3.org/2000/svg"><path fill-rule="evenodd" clip-rule="evenodd" d="M7.287 2.229A1.752 1.752 0 005.548.922L1.02 1.03a.673.673 0 10.032 1.345l4.529-.108a.404.404 0 01.401.301l.875 3.346c.009.036.021.07.036.104l1.279 6.316c.109.537.605.907 1.152.86l10.298-1.098c.557-.049.984-.514.984-1.072V5.475c0-.594-.483-1.076-1.08-1.076H7.855l-.567-2.17z" fill="#FFD400"/><circle r="1.685" transform="matrix(1 0 0 -1 18.535 14.882)" fill="#FFD400"/><circle r="1.685" transform="matrix(1 0 0 -1 11.554 15.604)" fill="#FFD400"/></svg><svg fill="none" viewBox="0 0 56 46" id="cart-g" xmlns="http://www.w3.org/2000/svg"><path fill-rule="evenodd" clip-rule="evenodd" d="M19.458 4.205A4.761 4.761 0 0014.735.654L2.432.949a1.83 1.83 0 00-1.788 1.87A1.83 1.83 0 002.52 4.602l12.303-.294c.51-.013.961.327 1.09.82l2.376 9.089c.026.098.059.192.099.281l3.475 17.161a2.93 2.93 0 003.131 2.334l27.977-2.98a2.927 2.927 0 002.673-2.913V13.024a2.928 2.928 0 00-2.931-2.923H20.999l-1.54-5.896z" fill="#616161"/><circle r="4.578" transform="matrix(1 0 0 -1 50.018 38.582)" fill="#616161"/><circle r="4.578" transform="matrix(1 0 0 -1 31.053 40.544)" fill="#616161"/></svg><svg fill="none" viewBox="0 0 51 51" id="home" xmlns="http://www.w3.org/2000/svg"><path d="M49.993 24.699L31.592 3.55a8.058 8.058 0 00-12.172 0L.887 24.7a1.735 1.735 0 001.302 2.865h3.154v21.53a1.722 1.722 0 001.696 1.722h36.803a1.721 1.721 0 001.722-1.722v-21.53h3.154a1.722 1.722 0 001.314-2.865h-.039z" fill="#616161"/></svg><svg fill="none" viewBox="0 0 31 41" id="hookah" xmlns="http://www.w3.org/2000/svg"><path d="M16.027 6.566h2.894c.678 0 .849.173.849.845 0 1.754-1.13 2.882-2.916 2.888h-3.137c-.138 0-.275.012-.452.02 0 .285-.014.549.01.809a.348.348 0 00.187.224c1.88.83 2.392 2.173 1.528 4.146.264 0 .508.008.751 0 2.67-.102 5.279-.488 7.742-1.59 4.81-2.151 6.521-6.52 6.172-10.727 0-.056-.016-.112-.018-.168-.017-.379.195-.653.531-.686.336-.032.593.205.64.587.492 4.147-1.28 9.156-5.97 11.626-1.933 1.019-4 1.603-6.157 1.87-1.215.15-2.44.225-3.681.327.678 1.252.565 2.44-.467 3.53.791.508 1.394 1.165 1.632 2.072.107.41.279.599.702.729.984.305 1.527 1.046 1.614 2.054.083.956-.325 1.712-1.145 2.241-.13.083-.268.15-.442.245.088.068.154.127.226.173 4.567 2.785 5.604 8.684 2.24 12.83a.831.831 0 01-.564.275c-4.083.016-8.166.016-12.25 0a.876.876 0 01-.586-.317c-3.321-4.217-2.287-9.974 2.281-12.79.068-.042.132-.09.204-.14-1.084-.751-1.084-.751-1.524-1.624-.643 0-1.314.08-1.958-.017-1.292-.194-2.302-.896-3.027-1.968-1.604-2.373-1.343-5.835.609-7.772 1.448-1.436 3.277-1.804 5.234-1.625.777.07 1.541.285 2.25.422 0-.594-.086-1.197.02-1.765.163-.882.748-1.51 1.595-1.82.385-.14.491-.336.445-.699a3.88 3.88 0 010-.465h-.49c-1.088 0-2.176.01-3.263 0a2.78 2.78 0 01-2.123-.977 2.731 2.731 0 01-.604-2.242c.061-.374.3-.514.658-.513H9.337c-.04-.179-.065-.321-.101-.461L8.127 1.847C7.863.827 8.353.201 9.412.201h6.569c1.003 0 1.51.631 1.266 1.59-.371 1.465-.756 2.927-1.13 4.39-.04.096-.054.204-.09.385zM12.621 39.73c1.865 0 3.73.008 5.595-.013a.786.786 0 00.55-.269 7.331 7.331 0 00.307-8.154c-1.489-2.411-4.149-3.933-7.445-3.493-5.537.739-8.277 7.046-5.094 11.606a.663.663 0 00.619.33c1.823-.014 3.646-.007 5.468-.007zm-1.806-19.456c-1.13-1.274-1.165-2.56-.18-3.907l-.895-.18c-1.007-.204-1.995-.515-3.051-.44-1.753.12-3.232.707-4.056 2.363a5.21 5.21 0 00-.31 4.08c.635 1.922 2.103 2.891 4.097 2.71.226-.02.452-.016.556-.327.282-.868.896-1.397 1.792-1.615.113-.028.274-.135.295-.231.234-1.056.828-1.85 1.752-2.453zM9.257 1.379a.681.681 0 000 .138c.411 1.597.82 3.195 1.243 4.789a.379.379 0 00.283.224c1.256.015 2.512.015 3.768 0a.388.388 0 00.293-.211c.437-1.633.857-3.27 1.288-4.931l-6.875-.009zm3.422 22.693H9.418c-.815 0-1.375.493-1.39 1.211-.017.737.539 1.266 1.375 1.27 2.185.009 4.373.009 6.564 0 .801 0 1.363-.545 1.356-1.254-.007-.71-.574-1.224-1.38-1.233-1.09.002-2.177.006-3.264.006zM6.81 7.743c.056.867.678 1.391 1.62 1.392 2.67.005 5.338.005 8.006 0 .27 0 .538.01.805-.017.72-.068 1.243-.623 1.306-1.376l-11.737.001zm5.876 12.042a1.57 1.57 0 00.867-.27 1.537 1.537 0 00.208-2.39 1.566 1.566 0 00-1.711-.31 1.559 1.559 0 00-.692.584c-.168.259-.254.56-.248.867a1.512 1.512 0 00.465 1.089 1.537 1.537 0 001.11.43zm-1.571-5.841c-.011.95.61 1.484 1.765 1.51.709.019 1.356-.69 1.366-1.486 0-.411-.164-.805-.457-1.096a1.57 1.57 0 00-1.103-.455 1.552 1.552 0 00-1.109.437 1.526 1.526 0 00-.462 1.09zm3.955 8.946c-.274-1.296-1.582-2.102-2.92-1.838-.963.192-1.92 1.183-1.789 1.838h4.709z" fill="#F10E44"/><path d="M12.621 39.73c-1.823 0-3.645-.007-5.468.007a.668.668 0 01-.62-.33c-3.183-4.56-.44-10.87 5.095-11.606 3.296-.44 5.956 1.082 7.444 3.494a7.331 7.331 0 01-.307 8.154.782.782 0 01-.55.269c-1.864.02-3.73.012-5.594.012z" fill="#F10E44"/><path d="M9.257 1.379h6.877c-.431 1.667-.85 3.304-1.288 4.93a.383.383 0 01-.293.212c-1.256.014-2.512.014-3.768 0a.383.383 0 01-.283-.225c-.425-1.593-.832-3.191-1.243-4.788a.682.682 0 01-.002-.13zM12.679 24.072h3.261c.807 0 1.372.51 1.381 1.233.009.721-.553 1.244-1.357 1.244-2.185.01-4.373.01-6.564 0-.837 0-1.393-.532-1.376-1.27.016-.718.575-1.208 1.39-1.21 1.09 0 2.178.003 3.265.003zM6.81 7.743h11.736c-.059.753-.587 1.308-1.306 1.376-.267.026-.536.017-.805.017H8.429c-.94-.002-1.564-.527-1.618-1.393zM12.687 19.785a1.546 1.546 0 01-1.11-.43 1.524 1.524 0 01-.466-1.088 1.527 1.527 0 01.448-1.123 1.553 1.553 0 011.128-.456c.414-.002.812.16 1.105.45a1.543 1.543 0 01.008 2.19 1.568 1.568 0 01-1.103.457h-.01z" fill="#fff"/><path d="M11.116 13.944a1.517 1.517 0 01.462-1.09 1.542 1.542 0 011.109-.438c.414.002.81.165 1.103.456.292.29.456.685.456 1.095-.008.797-.658 1.505-1.366 1.487-1.155-.026-1.775-.56-1.764-1.51zM15.068 22.89h-4.709c-.137-.656.826-1.646 1.789-1.838 1.33-.264 2.645.541 2.92 1.838z" fill="#F10E44"/></svg><svg fill="none" viewBox="0 0 31 28" id="like" xmlns="http://www.w3.org/2000/svg"><path d="M16.997 2.536c-.053.044-.105.09-.156.135-.73.644-1.783.63-2.522-.002C13.133 1.635 11.79.883 10.204.763c-3.05-.229-5.584.865-7.49 3.245C.89 6.288.288 8.941.702 11.803c.383 2.66 1.645 4.858 3.705 6.6 1.727 1.462 3.43 2.95 5.143 4.425a3994.98 3994.98 0 005.142 4.425c.582.501 1.183.5 1.776.005a7106.972 7106.972 0 007.801-6.714c1.079-.93 2.223-1.8 3.215-2.817 2.529-2.593 3.531-5.732 2.918-9.31-.464-2.712-1.795-4.93-4.182-6.393-2.798-1.715-6.306-1.972-9.223.512z" fill="#F10E44"/></svg><svg fill="none" viewBox="0 0 51 46" id="like-g" xmlns="http://www.w3.org/2000/svg"><path d="M28.36 3.708c-.335.285-.659.583-.977.887a1.992 1.992 0 01-2.764-.01 18.803 18.803 0 00-.722-.655C21.92 2.207 19.684.954 17.04.754 11.958.374 7.734 2.196 4.557 6.162 1.52 9.963.515 14.382 1.204 19.152c.639 4.433 2.743 8.096 6.176 11 2.877 2.435 5.715 4.914 8.57 7.374 2.855 2.46 5.71 4.919 8.569 7.374.97.835 1.972.832 2.96.009.158-.13.317-.265.466-.397 4.18-3.595 8.358-7.192 12.534-10.792 1.798-1.55 3.704-3 5.358-4.695 4.214-4.322 5.885-9.553 4.863-15.514-.773-4.521-2.991-8.218-6.97-10.655C39.07-.002 33.223-.43 28.36 3.708z" fill="#616161"/></svg><svg fill="none" viewBox="0 0 24 31" id="location" xmlns="http://www.w3.org/2000/svg"><path d="M12.375 30.238a1.023 1.023 0 01-.782-.329C11.186 29.44.91 18.303.91 12.203a11.465 11.465 0 0122.93 0c0 6.1-10.276 17.206-10.714 17.706a1.01 1.01 0 01-.75.329zm0-27.452a9.424 9.424 0 00-9.385 9.385c0 4.052 6.257 11.888 9.385 15.478 3.199-3.59 9.385-11.426 9.385-15.478a9.424 9.424 0 00-9.385-9.385z" fill="#F10E44"/><path d="M12.374 16.863a5.162 5.162 0 115.162-5.162 5.17 5.17 0 01-5.162 5.162z" fill="#F10E44"/></svg><svg fill="none" viewBox="0 0 51 51" id="navigator" xmlns="http://www.w3.org/2000/svg"><g clip-path="url(#kclip0_263_952)"><path d="M.752 25.758c0 13.807 11.193 25 25 25s25-11.193 25-25-11.193-25-25-25-25 11.193-25 25zm47.5 0c0 12.426-10.074 22.5-22.5 22.5s-22.5-10.074-22.5-22.5c0-12.427 10.073-22.5 22.5-22.5 12.426 0 22.5 10.073 22.5 22.5z" fill="#F10E44"/><path d="M17.89 24.697a1.5 1.5 0 000 2.122l9.545 9.545a1.5 1.5 0 102.122-2.12l-8.486-8.486 8.486-8.485a1.5 1.5 0 10-2.122-2.122l-9.546 9.546zm1.816-.44h-.756v3h.756v-3z" fill="#616161"/></g><defs><clipPath id="kclip0_263_952"><path fill="#fff" transform="matrix(-1 0 0 1 50.752 .758)" d="M0 0h50v50H0z"/></clipPath></defs></svg><svg fill="none" viewBox="0 0 14 44" id="pod-system" xmlns="http://www.w3.org/2000/svg"><path d="M.457 25.765c0-5.53-.003-11.061-.008-16.593 0-.421.123-.715.466-.97.503-.367.98-.787 1.45-1.199 1.603-1.388 2.428-3.146 2.5-5.252.023-.612.275-.866.874-.87.888-.006 1.776-.006 2.663 0 .602 0 .857.263.876.868.072 2.113.9 3.87 2.5 5.258.49.42.98.832 1.486 1.225a.995.995 0 01.429.857c-.008 11.124-.01 22.247-.006 33.37 0 .719-.245.964-.965.964H1.425c-.72 0-.963-.245-.963-.963C.458 36.891.457 31.326.457 25.765zm1.485 16.154h10.279v-.575c0-6.414-.018-12.827.022-19.24 0-.814-.224-1.319-.908-1.738-.874-.54-1.812-.597-2.667-.03-.318.212-.627.437-.942.654-1.817 1.255-3.72 1.035-5.22-.598-.153-.167-.336-.308-.564-.514v22.041zm10.25-22.757v-3.59H1.925v2.677c.75.272 1.314.735 1.821 1.31.746.843 1.913.98 2.876.386.285-.176.564-.367.831-.57 1.51-1.145 3.07-1.24 4.737-.217v.004zM1.967 9.695v4.357h1.403v-4.36l-1.403.003zm2.94-.007v4.36h1.398v-4.36H4.907zm4.34 4.37V9.71H7.834v4.344l1.414.002zm1.534-4.36v4.343h1.414V9.694l-1.414.004z" fill="#F10E44"/><path d="M1.942 41.919V19.875c.228.206.41.347.565.514 1.499 1.633 3.402 1.853 5.22.598.314-.217.623-.442.941-.654.857-.567 1.793-.51 2.667.03.684.42.913.924.908 1.737-.04 6.414-.022 12.827-.022 19.24v.578H1.942z" fill="#F10E44"/><path d="M12.191 19.158c-1.668-1.024-3.227-.928-4.733.218-.267.202-.546.393-.831.57-.963.596-2.13.456-2.876-.386-.507-.572-1.071-1.039-1.82-1.31v-2.678h10.26v3.586zM1.968 9.691h1.403v4.358H1.968V9.69zM4.908 9.684h1.399v4.36H4.908v-4.36zM9.25 14.053H7.834V9.712H9.25v4.342zM10.783 9.694h1.414v4.344h-1.414V9.694z" fill="#fff"/></svg><svg fill="none" viewBox="0 0 31 31" id="profile" xmlns="http://www.w3.org/2000/svg"><path d="M16.522 30.756h-1.874c-.085-.017-.17-.038-.255-.05-.713-.107-1.436-.167-2.137-.323-8.327-1.85-13.461-10.51-11.105-18.71C3.394 3.875 11.233-.701 19.14 1.174 24.867 2.531 29.38 7.358 30.35 13.169c.091.547.152 1.099.227 1.649v1.875c-.017.076-.038.15-.05.226-.101.695-.165 1.396-.307 2.082-1.2 5.816-6.171 10.575-12.023 11.524-.556.09-1.117.155-1.675.232zm8.075-5.335c3.859-3.527 5.457-9.425 3.177-14.818-2.239-5.3-7.804-8.81-14.007-7.964C8.1 3.412 3.381 7.857 2.491 13.823a12.947 12.947 0 00.61 6.317 13.222 13.222 0 003.48 5.305c.902-2.876 2.703-4.886 5.431-6.104-1.652-1.159-2.658-2.698-2.894-4.678-.235-1.99.327-3.757 1.697-5.228 2.456-2.634 6.545-2.8 9.161-.384 1.258 1.162 1.992 2.599 2.104 4.311.167 2.524-.871 4.498-2.902 5.979 3.131 1.669 3.977 2.618 5.42 6.08z" fill="#F10E44"/></svg><svg fill="none" viewBox="0 0 51 61" id="profile-g" xmlns="http://www.w3.org/2000/svg"><g clip-path="url(#nclip0_609_2506)"><path d="M27.042 55.776H23.92c-.142-.028-.282-.063-.425-.085-1.188-.177-2.393-.278-3.562-.538C6.053 52.069-2.503 37.638 1.424 23.97 5.162 10.974 18.228 3.347 31.408 6.472c9.54 2.262 17.062 10.307 18.68 19.992.152.912.254 1.831.38 2.748v3.125c-.03.126-.064.25-.083.377-.17 1.158-.277 2.327-.513 3.47-2.001 9.694-10.285 17.625-20.038 19.207-.928.15-1.862.258-2.792.385zm13.459-8.892c6.43-5.878 9.095-15.709 5.294-24.696-3.73-8.835-13.007-14.684-23.344-13.274-9.446 1.288-17.31 8.697-18.795 18.639a21.58 21.58 0 001.017 10.53 22.038 22.038 0 005.801 8.841c1.503-4.793 4.505-8.143 9.051-10.174-2.754-1.931-4.43-4.495-4.823-7.796-.391-3.318.546-6.262 2.83-8.713 4.091-4.39 10.906-4.668 15.267-.641 2.096 1.936 3.32 4.332 3.507 7.186.278 4.206-1.453 7.496-4.837 9.964 5.218 2.781 6.628 4.363 9.032 10.134z" fill="#616161"/></g><defs><clipPath id="nclip0_609_2506"><path fill="#fff" transform="translate(.644 .473)" d="M0 0h50v60H0z"/></clipPath></defs></svg><svg fill="none" viewBox="0 0 39 39" id="status" xmlns="http://www.w3.org/2000/svg"><path d="M38.691 13.579v.821a4.176 4.176 0 01-1.22 2.207c-.64.608-1.253 1.245-1.876 1.87-.085.085-.164.175-.254.272.247.247.47.464.687.686 1.386 1.422 1.486 3.336.13 4.78-1.558 1.657-3.2 3.237-4.82 4.836a1.095 1.095 0 01-1.547-.02 1.12 1.12 0 01-.024-1.553c.156-.177.33-.338.498-.505l4.169-4.17c.474-.475.592-1.016.258-1.473-.266-.364-.612-.67-.93-1.008-.123.118-.205.193-.284.272a5832.67 5832.67 0 01-5.73 5.722.829.829 0 00-.261.653c.008 2.725.01 5.45.005 8.174 0 1.18-.405 2.19-1.397 2.856-.469.315-1.056.453-1.59.672H3.45a.412.412 0 00-.099-.049C1.54 38.281.465 36.977.464 35.102c-.002-9.62-.002-19.24 0-28.86 0-2.125 1.437-3.56 3.559-3.566 1.02-.003 2.04-.006 3.06.004.216.003.32-.065.416-.264C8.094 1.172 9.096.473 10.47.45c2.339-.04 4.678-.04 7.017 0 1.375.023 2.376.722 2.972 1.966.095.2.2.267.415.264 1.033-.01 2.067-.04 3.098.01.534.027 1.106.112 1.584.335 1.325.617 1.932 1.735 1.934 3.18.006 3.46.006 6.92.002 10.38v.466c.156-.146.255-.234.348-.327l4.859-4.856c.21-.21.434-.409.67-.593 1.298-1.01 3.394-.77 4.463.476.462.537.69 1.163.86 1.828zm-13.44 15.348l-.085-.037c-1.044 1.049-2.081 2.105-3.137 3.142a2.08 2.08 0 01-.737.482c-1.489.518-2.986 1.012-4.487 1.496-.234.08-.484.1-.728.06-.693-.143-1.013-.803-.77-1.547.472-1.44.938-2.882 1.445-4.309.13-.371.34-.71.612-.995 2.537-2.565 5.096-5.11 7.64-7.668a.807.807 0 00.238-.501c.012-4.305.015-8.61.008-12.916 0-.755-.454-1.211-1.206-1.216-1.057-.007-2.115.004-3.172-.007-.218-.002-.32.07-.414.267-.597 1.243-1.598 1.94-2.973 1.964-2.338.04-4.676.04-7.015 0-1.375-.024-2.376-.722-2.971-1.966-.096-.2-.2-.267-.416-.265-1.02.011-2.04.004-3.06.005-.894.002-1.32.43-1.32 1.332v28.855c0 .9.427 1.327 1.325 1.327H23.92c.906 0 1.33-.421 1.331-1.318.002-1.754.002-3.509 0-5.263v-.922zm-4.06-2.271l1.463 1.474 9.4-9.4-1.47-1.469-9.394 9.395zm-7.25-21.74c1.107 0 2.214.002 3.321 0 .763-.003 1.267-.452 1.268-1.12 0-.667-.504-1.119-1.266-1.12-2.19-.002-4.38-.002-6.57 0-.76.001-1.268.454-1.268 1.119s.507 1.118 1.267 1.12c1.082.003 2.165 0 3.247 0zm18.286 10.6l1.558 1.555c.775-.764 1.594-1.541 2.377-2.354.434-.45.378-1.118-.062-1.54a1.097 1.097 0 00-1.547.016c-.792.77-1.565 1.56-2.326 2.322zM21.079 29.793c-.27-.258-.54-.497-.787-.757-.254-.267-.486-.555-.72-.825-.656.553-.661.558-.875 1.207-.192.58-.381 1.161-.581 1.774 1.986-.503 2.313-.655 2.963-1.399z" fill="#F10E44"/><path d="M10.964 12.898c.463.451.951.895 1.402 1.375.627.669.341 1.67-.522 1.884-.442.11-.804-.051-1.115-.36-.442-.439-.884-.876-1.327-1.312a.571.571 0 00-.09-.04l-1.34 1.35c-.31.311-.673.471-1.115.362-.864-.213-1.152-1.216-.526-1.882.451-.479.939-.924 1.451-1.425l-.992-.993c-.158-.159-.322-.311-.472-.478-.44-.489-.435-1.141.004-1.578.439-.436 1.095-.446 1.577.004.419.39.813.806 1.22 1.21.068.068.143.13.267.241.477-.492.925-.99 1.412-1.447.663-.624 1.675-.326 1.88.537.104.442-.062.803-.37 1.113-.44.441-.876.884-1.311 1.328a.583.583 0 00-.033.11zM8.223 22.463l3.443-3.452c.11-.117.229-.228.353-.331a1.112 1.112 0 011.564 1.56 2.833 2.833 0 01-.251.274c-1.38 1.382-2.761 2.763-4.143 4.143-.67.669-1.252.666-1.926-.007-.678-.676-1.365-1.345-2.029-2.035-.65-.676-.377-1.69.503-1.908.443-.11.806.052 1.114.363.446.449.888.901 1.372 1.393zM8.243 31.449c.333-.354.616-.667.913-.965.903-.91 1.806-1.818 2.72-2.716.502-.492 1.18-.495 1.63-.034.441.452.44 1.117-.042 1.605a597.281 597.281 0 01-4.406 4.407c-.513.507-1.142.502-1.658 0-.73-.713-1.451-1.434-2.163-2.165-.48-.49-.488-1.15-.049-1.603.45-.463 1.126-.461 1.631.027.464.449.908.919 1.424 1.444z" fill="#F10E44"/></svg><svg fill="none" viewBox="0 0 101 101" id="telegram" xmlns="http://www.w3.org/2000/svg"><path d="M50.553.316a50.02 50.02 0 100 100.04 50.02 50.02 0 000-100.04zm15.904 75.792a3.53 3.53 0 01-5.012 1.758l-13.579-10.55-8.715 8.04a1.5 1.5 0 01-1.425.194l1.67-14.948.054.043.034-.296s24.435-22.246 25.43-23.194c1.008-.945.675-1.15.675-1.15.058-1.153-1.808 0-1.808 0L31.406 56.833l-13.483-4.591s-2.07-.743-2.266-2.377c-.205-1.62 2.334-2.5 2.334-2.5l53.605-21.296s4.407-1.964 4.407 1.288l-9.546 48.751z" fill="#F10E44"/></svg><svg fill="none" viewBox="0 0 38 38" id="vape" xmlns="http://www.w3.org/2000/svg"><path fill-rule="evenodd" clip-rule="evenodd" d="M20.571.153a1 1 0 00-1 1v3.23a4 4 0 01-4 4h-.745a1 1 0 00-1 1V36.93a1 1 0 001 1h21.215a1 1 0 001-1V9.384a1 1 0 00-1-1h-.745a4 4 0 01-4-4v-3.23a1 1 0 00-1-1H20.57zm-3.43 14.855a1 1 0 011-1h.43a1 1 0 011 1v16.297a1 1 0 01-1 1h-.43a1 1 0 01-1-1V15.008zM4.057.378a.5.5 0 00-.5.5v.758a.5.5 0 00.5.5h4.691a.5.5 0 00.5-.5V.878a.5.5 0 00-.5-.5H4.057zM.96 2.136a.5.5 0 00-.5.5v34.57a.5.5 0 00.5.5h10.885a.5.5 0 00.5-.5V2.636a.5.5 0 00-.5-.5H.96zm5.443 3.1a1 1 0 011 1v.383a.5.5 0 00.5.5h.383a1 1 0 110 2h-.383a.5.5 0 00-.5.5v.384a1 1 0 11-2 0v-.384a.5.5 0 00-.5-.5h-.384a1 1 0 010-2h.383a.5.5 0 00.5-.5v-.383a1 1 0 011-1zm2.883 29.17a1 1 0 01-1 1H4.519a1 1 0 110-2h3.767a1 1 0 011 1zm1.6-19.5H1.92v16.302h8.965V14.906z" fill="#F10E44"/><path d="M4.288 22.854l3.159-4.025-1.07 3.26 2.14 1.376-3.465 3.922 1.325-3.158-2.089-1.375z" fill="#F10E44"/></svg><svg fill="none" viewBox="0 0 101 101" id="vk" xmlns="http://www.w3.org/2000/svg"><path fill-rule="evenodd" clip-rule="evenodd" d="M.075 50.425c0 27.67 22.439 50.108 50.108 50.108 27.67 0 50.109-22.438 50.109-50.108 0-27.67-22.439-50.109-50.109-50.109S.075 22.755.075 50.425zm79.864-18.27c2.215 0 2.676 1.133 2.215 2.686-.871 3.98-8.7 15.19-9.714 16.641l-.108.156c-.771 1.232-1.082 1.854 0 3.247.38.533 1.194 1.329 2.125 2.24.959.938 2.042 2 2.906 3.021 3.137 3.538 5.502 6.514 6.164 8.569.601 2.064-.441 3.106-2.526 3.106h-7.306c-1.957 0-2.945-1.098-5.077-3.47a90.202 90.202 0 00-3.481-3.705c-4.33-4.18-6.194-4.72-7.276-4.72-1.473 0-1.914.42-1.914 2.505v6.554c0 1.804-.581 2.846-5.221 2.846-7.747 0-16.245-4.7-22.289-13.369-9.06-12.697-11.535-22.298-11.535-24.232 0-1.082.421-2.065 2.506-2.065h7.306c1.864 0 2.565.812 3.267 2.837 3.578 10.412 9.6 19.512 12.076 19.512.922 0 1.353-.431 1.353-2.786V40.964c-.167-3.066-1.239-4.39-2.032-5.371-.49-.606-.874-1.08-.874-1.754 0-.822.701-1.684 1.864-1.684h11.484c1.544 0 2.085.832 2.085 2.686v14.471c0 1.554.671 2.095 1.132 2.095.932 0 1.704-.541 3.408-2.245 5.261-5.883 8.98-14.942 8.98-14.942.46-1.082 1.322-2.065 3.176-2.065h7.306z" fill="#F10E44"/></svg><svg fill="none" viewBox="0 0 21 43" id="zhizha" xmlns="http://www.w3.org/2000/svg"><path d="M20.57 23.614v14.987c0 2.485-1.475 4.003-3.892 4.003H4.409c-2.325 0-3.826-1.542-3.826-3.93v-18.76c0-3.893 0-7.785-.006-11.677 0-.429.148-.698.477-.956C3.716 5.193 6.364 3.086 9.015.986c1.122-.887 2-.895 3.108-.019l8.106 6.405c.281.221.35.492.35.84-.008 5.134-.01 10.268-.008 15.402zM2.01 29.395v9.468c0 1.316.917 2.269 2.19 2.27 4.252.007 8.503.007 12.756 0 1.255 0 2.182-.945 2.184-2.229.008-6.112.01-12.225.009-18.337 0-.253-.07-.384-.3-.478-.785-.322-1.561-.672-2.343-1.004a3.367 3.367 0 00-3.131.192c-.558.32-1.118.635-1.67.967-2.103 1.265-4.108 1.16-6.052-.387-.944-.752-2.027-.892-3.17-.553-.357.104-.485.268-.483.67.018 3.14.01 6.28.01 9.421zm17.105-10.768v-5.415H2.043v4.657a.723.723 0 00.16 0c1.706-.447 3.219-.045 4.608 1.045 1.161.908 2.442.97 3.735.29.688-.37 1.35-.772 2.026-1.165 1.455-.85 2.95-.951 4.494-.28.658.287 1.332.564 2.05.868zM3.448 7.254h14.267c-2.271-1.8-4.47-3.544-6.675-5.282-.351-.276-.682-.205-1.015.062-1.073.86-2.146 1.7-3.211 2.549L3.448 7.254zm6.396 1.542h-3.51v2.887H9.85l-.006-2.887zm4.997 0h-3.515v2.887h3.515V8.796zm-9.993-.011H2.035v2.892h2.813V8.785zm14.274 0h-2.805v2.884h2.805V8.785z" fill="#F10E44"/><path d="M2.01 29.395c0-3.141.008-6.282-.01-9.422 0-.402.13-.565.482-.67 1.148-.339 2.226-.198 3.17.553 1.944 1.547 3.949 1.652 6.053.387.552-.331 1.112-.647 1.668-.966a3.367 3.367 0 013.133-.188c.782.331 1.558.681 2.344 1.003.23.095.3.225.299.478-.007 6.113-.01 12.225-.009 18.338 0 1.283-.93 2.227-2.184 2.228-4.251.008-8.503.008-12.755 0-1.274 0-2.187-.953-2.191-2.27-.005-3.16 0-6.315 0-9.471z" fill="#F10E44"/></svg></svg>